<?xml version="1.0" encoding="UTF-8" standalone="no"?><!DOCTYPE svg PUBLIC "-//W3C//DTD SVG 1.1//EN" "http://www.w3.org/Graphics/SVG/1.1/DTD/svg11.dtd"><!-- Generated by graphviz version 2.40.1 (20161225.0304)
 --><!-- Title: src Pages: 1 --><svg xmlns="http://www.w3.org/2000/svg" xmlns:xlink="http://www.w3.org/1999/xlink" width="1283pt" height="1124pt" viewBox="0.00 0.00 1283.00 1124.00">
<g id="graph0" class="graph" transform="scale(1 1) rotate(0) translate(4 1120)">
<title>src</title>
<polygon fill="#ffffff" stroke="transparent" points="-4,4 -4,-1120 1279,-1120 1279,4 -4,4"/>
<!-- Agronome -->
<g id="node1" class="node">
<title>Agronome</title>
<polygon fill="none" stroke="#000000" points="629.7617,-600.658 629.7617,-683.858 811.5007,-683.858 811.5007,-600.658 629.7617,-600.658"/>
<text text-anchor="middle" x="720.6312" y="-667.258" font-family="Times,serif" font-size="14.00" fill="#000000">Agronome</text>
<polyline fill="none" stroke="#000000" points="629.7617,-659.058 811.5007,-659.058 "/>
<text text-anchor="start" x="637.7617" y="-642.458" font-family="Times,serif" font-size="14.00" fill="#000000">+ execute(GameMap) : void</text>
<text text-anchor="start" x="637.7617" y="-625.658" font-family="Times,serif" font-size="14.00" fill="#000000"> + cutTree(GameMap) : void</text>
<text text-anchor="start" x="637.7617" y="-608.858" font-family="Times,serif" font-size="14.00" fill="#000000"> + cutRock(GameMap) : void</text>
</g>
<!-- GameActions -->
<g id="node12" class="node">
<title>GameActions</title>
<polygon fill="none" stroke="#000000" points="819.6305,-751.7191 819.6305,-818.1191 993.9621,-818.1191 993.9621,-751.7191 819.6305,-751.7191"/>
<text text-anchor="middle" x="906.7963" y="-801.5191" font-family="Times,serif" font-size="14.00" fill="#000000">&lt;&lt;interface&gt;&gt;</text>
<text text-anchor="middle" x="906.7963" y="-784.7191" font-family="Times,serif" font-size="14.00" fill="#000000">GameActions</text>
<polyline fill="none" stroke="#000000" points="819.6305,-776.5191 993.9621,-776.5191 "/>
<text text-anchor="start" x="827.6305" y="-759.9191" font-family="Times,serif" font-size="14.00" fill="#000000">+ execute(GameMap) : void</text>
</g>
<!-- Agronome&#45;&gt;GameActions -->
<g id="edge1" class="edge">
<title>Agronome-&gt;GameActions</title>
<path fill="none" stroke="#008200" stroke-dasharray="5,2" d="M806.6718,-683.985C806.6718,-722.2476 806.6718,-773 806.6718,-773 806.6718,-773 809.3526,-773 809.3526,-773"/>
<polygon fill="#008200" stroke="#008200" points="809.3527,-776.5001 819.3526,-773 809.3526,-769.5001 809.3527,-776.5001"/>
</g>
<!-- AnsiSprite -->
<g id="node2" class="node">
<title>AnsiSprite</title>
<polygon fill="none" stroke="#000000" points="510.2977,-330.8409 510.2977,-380.4409 586.1785,-380.4409 586.1785,-330.8409 510.2977,-330.8409"/>
<text text-anchor="middle" x="548.2381" y="-363.8409" font-family="Times,serif" font-size="14.00" fill="#000000">AnsiSprite</text>
<polyline fill="none" stroke="#000000" points="510.2977,-355.6409 586.1785,-355.6409 "/>
<text text-anchor="middle" x="548.2381" y="-339.0409" font-family="Times,serif" font-size="14.00" fill="#000000"> </text>
</g>
<!-- Coordinates -->
<g id="node3" class="node">
<title>Coordinates</title>
<polygon fill="none" stroke="#000000" points="59.9843,-930.6409 59.9843,-1030.6409 228.4919,-1030.6409 228.4919,-930.6409 59.9843,-930.6409"/>
<text text-anchor="middle" x="144.2381" y="-1014.0409" font-family="Times,serif" font-size="14.00" fill="#000000">Coordinates</text>
<polyline fill="none" stroke="#000000" points="59.9843,-1005.8409 228.4919,-1005.8409 "/>
<text text-anchor="start" x="67.9843" y="-989.2409" font-family="Times,serif" font-size="14.00" fill="#000000">+ distanceTo(Entity) : int</text>
<text text-anchor="start" x="67.9843" y="-972.4409" font-family="Times,serif" font-size="14.00" fill="#000000"> + equals(Object) : boolean</text>
<text text-anchor="start" x="67.9843" y="-955.6409" font-family="Times,serif" font-size="14.00" fill="#000000"> + hashCode() : int</text>
<text text-anchor="start" x="67.9843" y="-938.8409" font-family="Times,serif" font-size="14.00" fill="#000000"> + toString() : String</text>
</g>
<!-- CreationWorld -->
<g id="node4" class="node">
<title>CreationWorld</title>
<polygon fill="none" stroke="#000000" points="819.5085,-642.6957 819.5085,-742.6957 1041.9497,-742.6957 1041.9497,-642.6957 819.5085,-642.6957"/>
<text text-anchor="middle" x="930.7291" y="-726.0957" font-family="Times,serif" font-size="14.00" fill="#000000">CreationWorld</text>
<polyline fill="none" stroke="#000000" points="819.5085,-717.8957 1041.9497,-717.8957 "/>
<text text-anchor="start" x="827.5085" y="-701.2957" font-family="Times,serif" font-size="14.00" fill="#000000">- getCoordinatesMap() : Coordinates</text>
<text text-anchor="start" x="827.5085" y="-684.4957" font-family="Times,serif" font-size="14.00" fill="#000000"> - getSquareMap() : int</text>
<text text-anchor="start" x="827.5085" y="-667.6957" font-family="Times,serif" font-size="14.00" fill="#000000"> + execute(GameMap) : void</text>
<text text-anchor="start" x="827.5085" y="-650.8957" font-family="Times,serif" font-size="14.00" fill="#000000"> - setupAllEntity() : void</text>
</g>
<!-- CreationWorld&#45;&gt;GameActions -->
<g id="edge2" class="edge">
<title>CreationWorld-&gt;GameActions</title>
<path fill="none" stroke="#008200" stroke-dasharray="5,2" d="M906.7963,-742.8556C906.7963,-742.8556 906.7963,-743.7066 906.7963,-743.7066"/>
<polygon fill="#008200" stroke="#008200" points="903.2964,-741.3655 906.7963,-751.3655 910.2964,-741.3656 903.2964,-741.3655"/>
</g>
<!-- Creature -->
<g id="node5" class="node">
<title>Creature</title>
<polygon fill="none" stroke="#000000" points="233.6256,-410.5385 233.6256,-544.1385 548.9708,-544.1385 548.9708,-410.5385 233.6256,-410.5385"/>
<text text-anchor="middle" x="391.2982" y="-527.5385" font-family="Times,serif" font-size="14.00" fill="#000000">Creature</text>
<polyline fill="none" stroke="#000000" points="233.6256,-519.3385 548.9708,-519.3385 "/>
<text text-anchor="start" x="241.6256" y="-502.7385" font-family="Times,serif" font-size="14.00" fill="#000000">+ isValidTarget(TargetType) : boolean</text>
<text text-anchor="start" x="241.6256" y="-485.9385" font-family="Times,serif" font-size="14.00" fill="#000000"> + setHp(double) : void</text>
<text text-anchor="start" x="241.6256" y="-469.1385" font-family="Times,serif" font-size="14.00" fill="#000000"> + getHp() : double</text>
<text text-anchor="start" x="241.6256" y="-452.3385" font-family="Times,serif" font-size="14.00" fill="#000000"> # contactToTarget(Entity, GameMap) : void</text>
<text text-anchor="start" x="241.6256" y="-435.5385" font-family="Times,serif" font-size="14.00" fill="#000000"> # makeMove(GameMap) : void</text>
<text text-anchor="start" x="241.6256" y="-418.7385" font-family="Times,serif" font-size="14.00" fill="#000000"> - isTargetContact(GameMap, Coordinates) : boolean</text>
</g>
<!-- Entity -->
<g id="node7" class="node">
<title>Entity</title>
<polygon fill="none" stroke="#000000" points="625.4504,-385.1803 625.4504,-485.1803 852.3016,-485.1803 852.3016,-385.1803 625.4504,-385.1803"/>
<text text-anchor="middle" x="738.876" y="-468.5803" font-family="Times,serif" font-size="14.00" fill="#000000">Entity</text>
<polyline fill="none" stroke="#000000" points="625.4504,-460.3803 852.3016,-460.3803 "/>
<text text-anchor="start" x="633.4504" y="-443.7803" font-family="Times,serif" font-size="14.00" fill="#000000">+ getCoordinates() : Coordinates</text>
<text text-anchor="start" x="633.4504" y="-426.9803" font-family="Times,serif" font-size="14.00" fill="#000000"> + getCoordintes() : Coordinates</text>
<text text-anchor="start" x="633.4504" y="-410.1803" font-family="Times,serif" font-size="14.00" fill="#000000"> + setCoordinates(Coordinates) : void</text>
<text text-anchor="start" x="633.4504" y="-393.3803" font-family="Times,serif" font-size="14.00" fill="#000000"> + toString() : String</text>
</g>
<!-- Creature&#45;&gt;Entity -->
<g id="edge3" class="edge">
<title>Creature-&gt;Entity</title>
<path fill="none" stroke="#000082" d="M549.0692,-447C549.0692,-447 615.2093,-447 615.2093,-447"/>
<polygon fill="#000082" stroke="#000082" points="615.2094,-450.5001 625.2093,-447 615.2093,-443.5001 615.2094,-450.5001"/>
</g>
<!-- MotionController -->
<g id="node17" class="node">
<title>MotionController</title>
<polygon fill="none" stroke="#000000" points="-.3706,-544.7888 -.3706,-678.3888 172.799,-678.3888 172.799,-544.7888 -.3706,-544.7888"/>
<text text-anchor="middle" x="86.2142" y="-661.7888" font-family="Times,serif" font-size="14.00" fill="#000000">&lt;&lt;interface&gt;&gt;</text>
<text text-anchor="middle" x="86.2142" y="-644.9888" font-family="Times,serif" font-size="14.00" fill="#000000">MotionController</text>
<polyline fill="none" stroke="#000000" points="-.3706,-636.7888 172.799,-636.7888 "/>
<text text-anchor="start" x="7.6294" y="-620.1888" font-family="Times,serif" font-size="14.00" fill="#000000">+ isDead() : boolean</text>
<text text-anchor="start" x="7.6294" y="-603.3888" font-family="Times,serif" font-size="14.00" fill="#000000"> + isFullHp() : boolean</text>
<text text-anchor="start" x="7.6294" y="-586.5888" font-family="Times,serif" font-size="14.00" fill="#000000"> + becomeEnergetic() : void</text>
<text text-anchor="start" x="7.6294" y="-569.7888" font-family="Times,serif" font-size="14.00" fill="#000000"> + isPepful(int) : boolean</text>
<text text-anchor="start" x="7.6294" y="-552.9888" font-family="Times,serif" font-size="14.00" fill="#000000"> + motionCounter() : void</text>
</g>
<!-- Creature&#45;&gt;MotionController -->
<g id="edge4" class="edge">
<title>Creature-&gt;MotionController</title>
<path fill="none" stroke="#008200" stroke-dasharray="5,2" d="M251.9452,-544.2911C251.9452,-549.0368 251.9452,-552 251.9452,-552 251.9452,-552 182.9627,-552 182.9627,-552"/>
<polygon fill="#008200" stroke="#008200" points="182.9628,-548.5001 172.9627,-552 182.9627,-555.5001 182.9628,-548.5001"/>
</g>
<!-- DeadSouls -->
<g id="node6" class="node">
<title>DeadSouls</title>
<polygon fill="none" stroke="#000000" points="924.2327,-442.7494 924.2327,-492.3494 1000.8863,-492.3494 1000.8863,-442.7494 924.2327,-442.7494"/>
<text text-anchor="middle" x="962.5595" y="-475.7494" font-family="Times,serif" font-size="14.00" fill="#000000">DeadSouls</text>
<polyline fill="none" stroke="#000000" points="924.2327,-467.5494 1000.8863,-467.5494 "/>
<text text-anchor="middle" x="962.5595" y="-450.9494" font-family="Times,serif" font-size="14.00" fill="#000000"> </text>
</g>
<!-- DeadSouls&#45;&gt;Entity -->
<g id="edge5" class="edge">
<title>DeadSouls-&gt;Entity</title>
<path fill="none" stroke="#000082" d="M924.1069,-463C924.1069,-463 862.324,-463 862.324,-463"/>
<polygon fill="#000082" stroke="#000082" points="862.324,-459.5001 852.324,-463 862.324,-466.5001 862.324,-459.5001"/>
</g>
<!-- EntityFactory -->
<g id="node8" class="node">
<title>EntityFactory</title>
<polygon fill="none" stroke="#000000" points="959.8763,-930.2409 959.8763,-1047.0409 1232.5999,-1047.0409 1232.5999,-930.2409 959.8763,-930.2409"/>
<text text-anchor="middle" x="1096.2381" y="-1030.4409" font-family="Times,serif" font-size="14.00" fill="#000000">EntityFactory</text>
<polyline fill="none" stroke="#000000" points="959.8763,-1022.2409 1232.5999,-1022.2409 "/>
<text text-anchor="start" x="967.8763" y="-1005.6409" font-family="Times,serif" font-size="14.00" fill="#000000">+ setGrass(GameMap, int, int) : void</text>
<text text-anchor="start" x="967.8763" y="-988.8409" font-family="Times,serif" font-size="14.00" fill="#000000"> + setThree(GameMap, int, int) : void</text>
<text text-anchor="start" x="967.8763" y="-972.0409" font-family="Times,serif" font-size="14.00" fill="#000000"> + setHerbivore(GameMap, int, int, int) : void</text>
<text text-anchor="start" x="967.8763" y="-955.2409" font-family="Times,serif" font-size="14.00" fill="#000000"> + setPredator(GameMap, int, int, int) : void</text>
<text text-anchor="start" x="967.8763" y="-938.4409" font-family="Times,serif" font-size="14.00" fill="#000000"> + setRock(GameMap, int, int) : void</text>
</g>
<!-- EntityQuantity -->
<g id="node9" class="node">
<title>EntityQuantity</title>
<polygon fill="none" stroke="#000000" points="989.6477,-.4409 989.6477,-66.8409 1176.8285,-66.8409 1176.8285,-.4409 989.6477,-.4409"/>
<text text-anchor="middle" x="1083.2381" y="-50.2409" font-family="Times,serif" font-size="14.00" fill="#000000">EntityQuantity</text>
<polyline fill="none" stroke="#000000" points="989.6477,-42.0409 1176.8285,-42.0409 "/>
<text text-anchor="start" x="997.6477" y="-25.4409" font-family="Times,serif" font-size="14.00" fill="#000000">- getSquareMap() : int</text>
<text text-anchor="start" x="997.6477" y="-8.6409" font-family="Times,serif" font-size="14.00" fill="#000000"> + getConstValues() : double[]</text>
</g>
<!-- FamilyType -->
<g id="node10" class="node">
<title>FamilyType</title>
<polygon fill="none" stroke="#000000" points="509.5611,-60.0409 509.5611,-143.2409 704.9151,-143.2409 704.9151,-60.0409 509.5611,-60.0409"/>
<text text-anchor="middle" x="607.2381" y="-126.6409" font-family="Times,serif" font-size="14.00" fill="#000000">&lt;&lt;enumeration&gt;&gt;</text>
<text text-anchor="middle" x="607.2381" y="-109.8409" font-family="Times,serif" font-size="14.00" fill="#000000">FamilyType</text>
<polyline fill="none" stroke="#000000" points="509.5611,-101.6409 704.9151,-101.6409 "/>
<text text-anchor="start" x="517.5611" y="-85.0409" font-family="Times,serif" font-size="14.00" fill="#000000">+ valueOf(String) : FamilyType</text>
<text text-anchor="start" x="517.5611" y="-68.2409" font-family="Times,serif" font-size="14.00" fill="#000000"> + values() : FamilyType[]</text>
</g>
<!-- Game -->
<g id="node11" class="node">
<title>Game</title>
<polygon fill="none" stroke="#000000" points="660.2189,-750.4409 660.2189,-816.8409 804.2573,-816.8409 804.2573,-750.4409 660.2189,-750.4409"/>
<text text-anchor="middle" x="732.2381" y="-800.2409" font-family="Times,serif" font-size="14.00" fill="#000000">Game</text>
<polyline fill="none" stroke="#000000" points="660.2189,-792.0409 804.2573,-792.0409 "/>
<text text-anchor="start" x="668.2189" y="-775.4409" font-family="Times,serif" font-size="14.00" fill="#000000">+ main(String[]) : void</text>
<text text-anchor="start" x="668.2189" y="-758.6409" font-family="Times,serif" font-size="14.00" fill="#000000"> + gameLoop() : void</text>
</g>
<!-- GameMap -->
<g id="node13" class="node">
<title>GameMap</title>
<polygon fill="none" stroke="#000000" points="270.2648,-780.0409 270.2648,-1115.2409 612.2114,-1115.2409 612.2114,-780.0409 270.2648,-780.0409"/>
<text text-anchor="middle" x="441.2381" y="-1098.6409" font-family="Times,serif" font-size="14.00" fill="#000000">GameMap</text>
<polyline fill="none" stroke="#000000" points="270.2648,-1090.4409 612.2114,-1090.4409 "/>
<text text-anchor="start" x="278.2648" y="-1073.8409" font-family="Times,serif" font-size="14.00" fill="#000000">+ getAllGrass() : ArrayList&lt;Grass&gt;</text>
<text text-anchor="start" x="278.2648" y="-1057.0409" font-family="Times,serif" font-size="14.00" fill="#000000"> + getAllThree() : ArrayList&lt;Three&gt;</text>
<text text-anchor="start" x="278.2648" y="-1040.2409" font-family="Times,serif" font-size="14.00" fill="#000000"> + getTargets(GameMap, Entity) : ArrayList&lt;T&gt;</text>
<text text-anchor="start" x="278.2648" y="-1023.4409" font-family="Times,serif" font-size="14.00" fill="#000000"> + getAllPredators() : ArrayList&lt;Predator&gt;</text>
<text text-anchor="start" x="278.2648" y="-1006.6409" font-family="Times,serif" font-size="14.00" fill="#000000"> + isSquareEmptyForMove(Coordinates, Entity) : boolean</text>
<text text-anchor="start" x="278.2648" y="-989.8409" font-family="Times,serif" font-size="14.00" fill="#000000"> + isNotEntity(Coordinates) : boolean</text>
<text text-anchor="start" x="278.2648" y="-973.0409" font-family="Times,serif" font-size="14.00" fill="#000000"> + removeEntity(Coordinates) : void</text>
<text text-anchor="start" x="278.2648" y="-956.2409" font-family="Times,serif" font-size="14.00" fill="#000000"> + getAllEntities() : ArrayList&lt;Entity&gt;</text>
<text text-anchor="start" x="278.2648" y="-939.4409" font-family="Times,serif" font-size="14.00" fill="#000000"> + moveCreature(Coordinates, Coordinates) : void</text>
<text text-anchor="start" x="278.2648" y="-922.6409" font-family="Times,serif" font-size="14.00" fill="#000000"> + isValidCoordinates(Coordinates) : boolean</text>
<text text-anchor="start" x="278.2648" y="-905.8409" font-family="Times,serif" font-size="14.00" fill="#000000"> + getEntity(Coordinates) : Entity</text>
<text text-anchor="start" x="278.2648" y="-889.0409" font-family="Times,serif" font-size="14.00" fill="#000000"> + getSizeMap() : Coordinates</text>
<text text-anchor="start" x="278.2648" y="-872.2409" font-family="Times,serif" font-size="14.00" fill="#000000"> + setEntities(Entity) : void</text>
<text text-anchor="start" x="278.2648" y="-855.4409" font-family="Times,serif" font-size="14.00" fill="#000000"> + getAllHerbivore() : ArrayList&lt;Herbivore&gt;</text>
<text text-anchor="start" x="278.2648" y="-838.6409" font-family="Times,serif" font-size="14.00" fill="#000000"> + setEntities(Coordinates, Entity) : void</text>
<text text-anchor="start" x="278.2648" y="-821.8409" font-family="Times,serif" font-size="14.00" fill="#000000"> + getAllDeadSouls() : ArrayList&lt;DeadSouls&gt;</text>
<text text-anchor="start" x="278.2648" y="-805.0409" font-family="Times,serif" font-size="14.00" fill="#000000"> + getAllRock() : ArrayList&lt;Rock&gt;</text>
<text text-anchor="start" x="278.2648" y="-788.2409" font-family="Times,serif" font-size="14.00" fill="#000000"> + isSquareEmptyForPrintMap(Coordinates) : boolean</text>
</g>
<!-- Grass -->
<g id="node14" class="node">
<title>Grass</title>
<polygon fill="none" stroke="#000000" points="668.5942,-494.2563 668.5942,-543.8563 826.6004,-543.8563 826.6004,-494.2563 668.5942,-494.2563"/>
<text text-anchor="middle" x="747.5973" y="-527.2563" font-family="Times,serif" font-size="14.00" fill="#000000">Grass</text>
<polyline fill="none" stroke="#000000" points="668.5942,-519.0563 826.6004,-519.0563 "/>
<text text-anchor="start" x="676.5942" y="-502.4563" font-family="Times,serif" font-size="14.00" fill="#000000">+ compareTo(Grass) : int</text>
</g>
<!-- Grass&#45;&gt;Entity -->
<g id="edge6" class="edge">
<title>Grass-&gt;Entity</title>
<path fill="none" stroke="#000082" d="M747.5973,-493.8907C747.5973,-493.8907 747.5973,-493.0216 747.5973,-493.0216"/>
<polygon fill="#000082" stroke="#000082" points="751.0974,-495.1994 747.5973,-485.1995 744.0974,-495.1995 751.0974,-495.1994"/>
</g>
<!-- Herbivore -->
<g id="node15" class="node">
<title>Herbivore</title>
<polygon fill="none" stroke="#000000" points="282.0641,-560.7436 282.0641,-744.7436 549.9871,-744.7436 549.9871,-560.7436 282.0641,-560.7436"/>
<text text-anchor="middle" x="416.0256" y="-728.1436" font-family="Times,serif" font-size="14.00" fill="#000000">Herbivore</text>
<polyline fill="none" stroke="#000000" points="282.0641,-719.9436 549.9871,-719.9436 "/>
<text text-anchor="start" x="290.0641" y="-703.3436" font-family="Times,serif" font-size="14.00" fill="#000000">+ isDead() : boolean</text>
<text text-anchor="start" x="290.0641" y="-686.5436" font-family="Times,serif" font-size="14.00" fill="#000000"> + becomeEnergetic() : void</text>
<text text-anchor="start" x="290.0641" y="-669.7436" font-family="Times,serif" font-size="14.00" fill="#000000"> + makeMove(GameMap) : void</text>
<text text-anchor="start" x="290.0641" y="-652.9436" font-family="Times,serif" font-size="14.00" fill="#000000"> + isFullHp() : boolean</text>
<text text-anchor="start" x="290.0641" y="-636.1436" font-family="Times,serif" font-size="14.00" fill="#000000"> + compareTo(Herbivore) : int</text>
<text text-anchor="start" x="290.0641" y="-619.3436" font-family="Times,serif" font-size="14.00" fill="#000000"> + isPepful(int) : boolean</text>
<text text-anchor="start" x="290.0641" y="-602.5436" font-family="Times,serif" font-size="14.00" fill="#000000"> # contactToTarget(Entity, GameMap) : void</text>
<text text-anchor="start" x="290.0641" y="-585.7436" font-family="Times,serif" font-size="14.00" fill="#000000"> + isValidTarget(TargetType) : boolean</text>
<text text-anchor="start" x="290.0641" y="-568.9436" font-family="Times,serif" font-size="14.00" fill="#000000"> + motionCounter() : void</text>
</g>
<!-- Herbivore&#45;&gt;Creature -->
<g id="edge7" class="edge">
<title>Herbivore-&gt;Creature</title>
<path fill="none" stroke="#000082" d="M415.5175,-560.6746C415.5175,-560.6746 415.5175,-554.4504 415.5175,-554.4504"/>
<polygon fill="#000082" stroke="#000082" points="419.0176,-554.4503 415.5175,-544.4504 412.0176,-554.4504 419.0176,-554.4503"/>
</g>
<!-- MapConsoleRenderer -->
<g id="node16" class="node">
<title>MapConsoleRenderer</title>
<polygon fill="none" stroke="#000000" points="870.203,-540.0409 870.203,-623.2409 1106.2732,-623.2409 1106.2732,-540.0409 870.203,-540.0409"/>
<text text-anchor="middle" x="988.2381" y="-606.6409" font-family="Times,serif" font-size="14.00" fill="#000000">MapConsoleRenderer</text>
<polyline fill="none" stroke="#000000" points="870.203,-598.4409 1106.2732,-598.4409 "/>
<text text-anchor="start" x="878.203" y="-581.8409" font-family="Times,serif" font-size="14.00" fill="#000000">+ renderer(GameMap) : void</text>
<text text-anchor="start" x="878.203" y="-565.0409" font-family="Times,serif" font-size="14.00" fill="#000000"> - getSprite(Entity) : String</text>
<text text-anchor="start" x="878.203" y="-548.2409" font-family="Times,serif" font-size="14.00" fill="#000000"> - colorizeSprite(String, Entity) : String</text>
</g>
<!-- Murder -->
<g id="node18" class="node">
<title>Murder</title>
<polygon fill="none" stroke="#000000" points="641.8398,-898.5026 641.8398,-948.1026 816.1714,-948.1026 816.1714,-898.5026 641.8398,-898.5026"/>
<text text-anchor="middle" x="729.0056" y="-931.5026" font-family="Times,serif" font-size="14.00" fill="#000000">Murder</text>
<polyline fill="none" stroke="#000000" points="641.8398,-923.3026 816.1714,-923.3026 "/>
<text text-anchor="start" x="649.8398" y="-906.7026" font-family="Times,serif" font-size="14.00" fill="#000000">+ execute(GameMap) : void</text>
</g>
<!-- Murder&#45;&gt;GameActions -->
<g id="edge8" class="edge">
<title>Murder-&gt;GameActions</title>
<path fill="none" stroke="#008200" stroke-dasharray="5,2" d="M809.0862,-898.26C809.0862,-860.9216 809.0862,-795 809.0862,-795 809.0862,-795 810.1319,-795 810.1319,-795"/>
<polygon fill="#008200" stroke="#008200" points="809.543,-798.5001 819.5429,-795 809.5429,-791.5001 809.543,-798.5001"/>
</g>
<!-- PathToTarget -->
<g id="node19" class="node">
<title>PathToTarget</title>
<polygon fill="none" stroke="#000000" points="900.3632,-330.4409 900.3632,-396.8409 1146.113,-396.8409 1146.113,-330.4409 900.3632,-330.4409"/>
<text text-anchor="middle" x="1023.2381" y="-380.2409" font-family="Times,serif" font-size="14.00" fill="#000000">PathToTarget</text>
<polyline fill="none" stroke="#000000" points="900.3632,-372.0409 1146.113,-372.0409 "/>
<text text-anchor="start" x="908.3632" y="-355.4409" font-family="Times,serif" font-size="14.00" fill="#000000">- execute(GameMap, Coordinates) : void</text>
<text text-anchor="start" x="908.3632" y="-338.6409" font-family="Times,serif" font-size="14.00" fill="#000000"> + getPath() : ArrayList&lt;Coordinates&gt;</text>
</g>
<!-- Predator -->
<g id="node20" class="node">
<title>Predator</title>
<polygon fill="none" stroke="#000000" points="183.4188,-180.2567 183.4188,-397.8567 451.3418,-397.8567 451.3418,-180.2567 183.4188,-180.2567"/>
<text text-anchor="middle" x="317.3803" y="-381.2567" font-family="Times,serif" font-size="14.00" fill="#000000">Predator</text>
<polyline fill="none" stroke="#000000" points="183.4188,-373.0567 451.3418,-373.0567 "/>
<text text-anchor="start" x="191.4188" y="-356.4567" font-family="Times,serif" font-size="14.00" fill="#000000">+ isDead() : boolean</text>
<text text-anchor="start" x="191.4188" y="-339.6567" font-family="Times,serif" font-size="14.00" fill="#000000"> # contactToTarget(Entity, GameMap) : void</text>
<text text-anchor="start" x="191.4188" y="-322.8567" font-family="Times,serif" font-size="14.00" fill="#000000"> + isFullHp() : boolean</text>
<text text-anchor="start" x="191.4188" y="-306.0567" font-family="Times,serif" font-size="14.00" fill="#000000"> + getAttackPower() : double</text>
<text text-anchor="start" x="191.4188" y="-289.2567" font-family="Times,serif" font-size="14.00" fill="#000000"> + isValidTarget(TargetType) : boolean</text>
<text text-anchor="start" x="191.4188" y="-272.4567" font-family="Times,serif" font-size="14.00" fill="#000000"> + setAttackPower(double) : void</text>
<text text-anchor="start" x="191.4188" y="-255.6567" font-family="Times,serif" font-size="14.00" fill="#000000"> + motionCounter() : void</text>
<text text-anchor="start" x="191.4188" y="-238.8567" font-family="Times,serif" font-size="14.00" fill="#000000"> + isPepful(int) : boolean</text>
<text text-anchor="start" x="191.4188" y="-222.0567" font-family="Times,serif" font-size="14.00" fill="#000000"> + makeMove(GameMap) : void</text>
<text text-anchor="start" x="191.4188" y="-205.2567" font-family="Times,serif" font-size="14.00" fill="#000000"> + becomeEnergetic() : void</text>
<text text-anchor="start" x="191.4188" y="-188.4567" font-family="Times,serif" font-size="14.00" fill="#000000"> + getSatiety() : int</text>
</g>
<!-- Predator&#45;&gt;Creature -->
<g id="edge9" class="edge">
<title>Predator-&gt;Creature</title>
<path fill="none" stroke="#000082" d="M342.4837,-398.0357C342.4837,-398.0357 342.4837,-400.0892 342.4837,-400.0892"/>
<polygon fill="#000082" stroke="#000082" points="338.9838,-400.0892 342.4837,-410.0892 345.9838,-400.0893 338.9838,-400.0892"/>
</g>
<!-- Reborn -->
<g id="node21" class="node">
<title>Reborn</title>
<polygon fill="none" stroke="#000000" points="1047.0864,-764.3355 1047.0864,-847.5355 1275.4636,-847.5355 1275.4636,-764.3355 1047.0864,-764.3355"/>
<text text-anchor="middle" x="1161.275" y="-830.9355" font-family="Times,serif" font-size="14.00" fill="#000000">Reborn</text>
<polyline fill="none" stroke="#000000" points="1047.0864,-822.7355 1275.4636,-822.7355 "/>
<text text-anchor="start" x="1055.0864" y="-806.1355" font-family="Times,serif" font-size="14.00" fill="#000000">+ rebornGrass() : void</text>
<text text-anchor="start" x="1055.0864" y="-789.3355" font-family="Times,serif" font-size="14.00" fill="#000000"> + rebornPredatorsFromThree() : void</text>
<text text-anchor="start" x="1055.0864" y="-772.5355" font-family="Times,serif" font-size="14.00" fill="#000000"> + execute(GameMap) : void</text>
</g>
<!-- Reborn&#45;&gt;GameActions -->
<g id="edge10" class="edge">
<title>Reborn-&gt;GameActions</title>
<path fill="none" stroke="#008200" stroke-dasharray="5,2" d="M1047.0623,-791C1047.0623,-791 1004.3164,-791 1004.3164,-791"/>
<polygon fill="#008200" stroke="#008200" points="1004.3164,-787.5001 994.3164,-791 1004.3163,-794.5001 1004.3164,-787.5001"/>
</g>
<!-- Rock -->
<g id="node22" class="node">
<title>Rock</title>
<polygon fill="none" stroke="#000000" points="779.8864,-316.8862 779.8864,-366.4862 833.8864,-366.4862 833.8864,-316.8862 779.8864,-316.8862"/>
<text text-anchor="middle" x="806.662" y="-349.8862" font-family="Times,serif" font-size="14.00" fill="#000000">Rock</text>
<polyline fill="none" stroke="#000000" points="779.8864,-341.6862 833.4376,-341.6862 "/>
<text text-anchor="middle" x="806.662" y="-325.0862" font-family="Times,serif" font-size="14.00" fill="#000000"> </text>
</g>
<!-- Rock&#45;&gt;Entity -->
<g id="edge11" class="edge">
<title>Rock-&gt;Entity</title>
<path fill="none" stroke="#000082" d="M806.8864,-366.7409C806.8864,-366.7409 806.8864,-375.1424 806.8864,-375.1424"/>
<polygon fill="#000082" stroke="#000082" points="803.3865,-375.1423 806.8864,-385.1424 810.3865,-375.1424 803.3865,-375.1423"/>
</g>
<!-- ShiftsCreature -->
<g id="node23" class="node">
<title>ShiftsCreature</title>
<polygon fill="none" stroke="#000000" points="90.086,-810.4409 90.086,-876.8409 224.3902,-876.8409 224.3902,-810.4409 90.086,-810.4409"/>
<text text-anchor="middle" x="157.2381" y="-860.2409" font-family="Times,serif" font-size="14.00" fill="#000000">ShiftsCreature</text>
<polyline fill="none" stroke="#000000" points="90.086,-852.0409 224.3902,-852.0409 "/>
<text text-anchor="start" x="98.086" y="-835.4409" font-family="Times,serif" font-size="14.00" fill="#000000">- setShifts() : int[][]</text>
<text text-anchor="start" x="98.086" y="-818.6409" font-family="Times,serif" font-size="14.00" fill="#000000"> + getShifts() : int[][]</text>
</g>
<!-- StaticType -->
<g id="node24" class="node">
<title>StaticType</title>
<polygon fill="none" stroke="#000000" points="749.7038,-60.0409 749.7038,-143.2409 940.7724,-143.2409 940.7724,-60.0409 749.7038,-60.0409"/>
<text text-anchor="middle" x="845.2381" y="-126.6409" font-family="Times,serif" font-size="14.00" fill="#000000">&lt;&lt;enumeration&gt;&gt;</text>
<text text-anchor="middle" x="845.2381" y="-109.8409" font-family="Times,serif" font-size="14.00" fill="#000000">StaticType</text>
<polyline fill="none" stroke="#000000" points="749.7038,-101.6409 940.7724,-101.6409 "/>
<text text-anchor="start" x="757.7038" y="-85.0409" font-family="Times,serif" font-size="14.00" fill="#000000">+ values() : StaticType[]</text>
<text text-anchor="start" x="757.7038" y="-68.2409" font-family="Times,serif" font-size="14.00" fill="#000000"> + valueOf(String) : StaticType</text>
</g>
<!-- TargetType -->
<g id="node25" class="node">
<title>TargetType</title>
<polygon fill="none" stroke="#000000" points="90.3791,-60.0409 90.3791,-143.2409 286.0971,-143.2409 286.0971,-60.0409 90.3791,-60.0409"/>
<text text-anchor="middle" x="188.2381" y="-126.6409" font-family="Times,serif" font-size="14.00" fill="#000000">&lt;&lt;enumeration&gt;&gt;</text>
<text text-anchor="middle" x="188.2381" y="-109.8409" font-family="Times,serif" font-size="14.00" fill="#000000">TargetType</text>
<polyline fill="none" stroke="#000000" points="90.3791,-101.6409 286.0971,-101.6409 "/>
<text text-anchor="start" x="98.3791" y="-85.0409" font-family="Times,serif" font-size="14.00" fill="#000000">+ values() : TargetType[]</text>
<text text-anchor="start" x="98.3791" y="-68.2409" font-family="Times,serif" font-size="14.00" fill="#000000"> + valueOf(String) : TargetType</text>
</g>
<!-- Three -->
<g id="node26" class="node">
<title>Three</title>
<polygon fill="none" stroke="#000000" points="647.9526,-316.4461 647.9526,-366.0461 701.9526,-366.0461 701.9526,-316.4461 647.9526,-316.4461"/>
<text text-anchor="middle" x="674.7738" y="-349.4461" font-family="Times,serif" font-size="14.00" fill="#000000">Three</text>
<polyline fill="none" stroke="#000000" points="647.9526,-341.2461 701.595,-341.2461 "/>
<text text-anchor="middle" x="674.7738" y="-324.6461" font-family="Times,serif" font-size="14.00" fill="#000000"> </text>
</g>
<!-- Three&#45;&gt;Entity -->
<g id="edge12" class="edge">
<title>Three-&gt;Entity</title>
<path fill="none" stroke="#000082" d="M674.9526,-366.4187C674.9526,-366.4187 674.9526,-374.9068 674.9526,-374.9068"/>
<polygon fill="#000082" stroke="#000082" points="671.4527,-374.9067 674.9526,-384.9068 678.4527,-374.9068 671.4527,-374.9067"/>
</g>
<!-- UpdateEveryTurn -->
<g id="node27" class="node">
<title>UpdateEveryTurn</title>
<polygon fill="none" stroke="#000000" points="824.1988,-827.1357 824.1988,-893.5357 998.5304,-893.5357 998.5304,-827.1357 824.1988,-827.1357"/>
<text text-anchor="middle" x="911.3646" y="-876.9357" font-family="Times,serif" font-size="14.00" fill="#000000">UpdateEveryTurn</text>
<polyline fill="none" stroke="#000000" points="824.1988,-868.7357 998.5304,-868.7357 "/>
<text text-anchor="start" x="832.1988" y="-852.1357" font-family="Times,serif" font-size="14.00" fill="#000000">+ execute(GameMap) : void</text>
<text text-anchor="start" x="832.1988" y="-835.3357" font-family="Times,serif" font-size="14.00" fill="#000000"> - makeMoveAll() : void</text>
</g>
<!-- UpdateEveryTurn&#45;&gt;GameActions -->
<g id="edge13" class="edge">
<title>UpdateEveryTurn-&gt;GameActions</title>
<path fill="none" stroke="#008200" stroke-dasharray="5,2" d="M909.0805,-827.0373C909.0805,-827.0373 909.0805,-826.1814 909.0805,-826.1814"/>
<polygon fill="#008200" stroke="#008200" points="912.5806,-828.4783 909.0805,-818.4783 905.5806,-828.4783 912.5806,-828.4783"/>
</g>
<!-- aStar -->
<g id="node28" class="node">
<title>aStar</title>
<polygon fill="none" stroke="#000000" points="510.0921,-180.6409 510.0921,-280.6409 972.3841,-280.6409 972.3841,-180.6409 510.0921,-180.6409"/>
<text text-anchor="middle" x="741.2381" y="-264.0409" font-family="Times,serif" font-size="14.00" fill="#000000">aStar</text>
<polyline fill="none" stroke="#000000" points="510.0921,-255.8409 972.3841,-255.8409 "/>
<text text-anchor="start" x="518.0921" y="-239.2409" font-family="Times,serif" font-size="14.00" fill="#000000">+ shortestPath(Coordinates, Coordinates, GameMap) : ArrayList&lt;Coordinates&gt;</text>
<text text-anchor="start" x="518.0921" y="-222.4409" font-family="Times,serif" font-size="14.00" fill="#000000"> - constructPath(Node) : ArrayList&lt;Coordinates&gt;</text>
<text text-anchor="start" x="518.0921" y="-205.6409" font-family="Times,serif" font-size="14.00" fill="#000000"> - getNeighbours(Coordinates, GameMap) : List&lt;Coordinates&gt;</text>
<text text-anchor="start" x="518.0921" y="-188.8409" font-family="Times,serif" font-size="14.00" fill="#000000"> - heuristic(Coordinates, Coordinates) : int</text>
</g>
</g>
</svg>